<?xml version="1.0" encoding="UTF-8" standalone="no"?>
<svg
   xmlns:dc="http://purl.org/dc/elements/1.1/"
   xmlns:cc="http://creativecommons.org/ns#"
   xmlns:rdf="http://www.w3.org/1999/02/22-rdf-syntax-ns#"
   xmlns:svg="http://www.w3.org/2000/svg"
   xmlns="http://www.w3.org/2000/svg"
   viewBox="0 0 166.10268 97.816399"
   height="97.816399"
   width="166.10268"
   xml:space="preserve"
   id="svg2"
   version="1.1"><metadata
     id="metadata8"><rdf:RDF><cc:Work
         rdf:about=""><dc:format>image/svg+xml</dc:format><dc:type
           rdf:resource="http://purl.org/dc/dcmitype/StillImage" /></cc:Work></rdf:RDF></metadata><defs
     id="defs6"><clipPath
       id="clipPath18"
       clipPathUnits="userSpaceOnUse"><path
         id="path16"
         d="M 0,73.362 H 124.577 V 0 H 0 Z" /></clipPath></defs><g
     transform="matrix(1.3333333,0,0,-1.3333333,0,97.8164)"
     id="g10"><g
       id="g12"><g
         clip-path="url(#clipPath18)"
         id="g14"><g
           transform="translate(115.8311,35.3574)"
           id="g20"><path
             id="path22"
             style="fill:#ffffff;fill-opacity:1;fill-rule:nonzero;stroke:none"
             d="m 0,0 c -1.591,0 -2.88,-1.289 -2.88,-2.88 0,-1.59 1.289,-2.88 2.88,-2.88 1.591,0 2.88,1.29 2.88,2.88 C 2.88,-1.289 1.591,0 0,0 m -44.712,-33.357 c 0,1.104 -0.895,2 -2,2 h -13.982 l 15.628,66.906 c 0.251,1.076 -0.417,2.151 -1.493,2.402 -1.078,0.254 -2.151,-0.416 -2.402,-1.492 l -16.775,-71.816 h 19.024 c 1.105,0 2,0.895 2,2 m -29.755,19.908 c 6.817,5.133 10.726,12.944 10.726,21.429 0,8.485 -3.909,16.295 -10.726,21.428 -0.883,0.665 -2.137,0.489 -2.801,-0.394 -0.664,-0.882 -0.487,-2.137 0.395,-2.801 5.803,-4.37 9.132,-11.016 9.132,-18.233 0,-6.53 -2.725,-12.593 -7.543,-16.925 l -28.18,39.59 -1.641,-1.237 c -6.817,-5.133 -10.726,-12.943 -10.726,-21.428 0,-8.485 3.909,-16.296 10.726,-21.429 0.88,-0.664 2.135,-0.489 2.8,0.394 0.665,0.882 0.488,2.137 -0.394,2.801 -5.803,4.37 -9.132,11.017 -9.132,18.234 0,6.53 2.725,12.592 7.542,16.924 l 28.181,-39.59 z M 4.746,10.892 c 0,-2.616 -2.129,-4.744 -4.745,-4.744 -2.617,0 -4.747,2.128 -4.747,4.744 0,2.617 2.13,4.747 4.747,4.747 2.616,0 4.745,-2.13 4.745,-4.747 m 4,0 c 0,4.823 -3.923,8.747 -8.745,8.747 -4.823,0 -8.747,-3.924 -8.747,-8.747 0,-4.822 3.924,-8.744 8.747,-8.744 4.822,0 8.745,3.922 8.745,8.744 m -27.9,-26.833 c -13.012,0 -23.598,10.587 -23.598,23.602 0,13.012 10.586,23.598 23.598,23.598 5.602,0 11.032,-2.004 15.289,-5.642 0.84,-0.718 0.939,-1.98 0.221,-2.819 -0.717,-0.84 -1.978,-0.941 -2.819,-0.222 -3.534,3.02 -8.041,4.683 -12.691,4.683 -10.806,0 -19.598,-8.791 -19.598,-19.598 0,-10.808 8.792,-19.602 19.598,-19.602 4.641,0 9.148,1.667 12.691,4.695 0.84,0.718 2.102,0.619 2.819,-0.221 0.718,-0.84 0.619,-2.102 -0.221,-2.82 -4.266,-3.647 -9.697,-5.654 -15.289,-5.654" /></g></g></g></g></svg>